<?xml version="1.0" encoding="utf-8"?>
<!-- Generator: Adobe Illustrator 15.1.0, SVG Export Plug-In . SVG Version: 6.00 Build 0)  -->
<!DOCTYPE svg PUBLIC "-//W3C//DTD SVG 1.1//EN" "http://www.w3.org/Graphics/SVG/1.1/DTD/svg11.dtd">
<svg version="1.1" id="Dessin_vectoriel" xmlns="http://www.w3.org/2000/svg" xmlns:xlink="http://www.w3.org/1999/xlink" x="0px"
	 y="0px" width="595.28px" height="841.89px" viewBox="0 0 595.28 841.89" enable-background="new 0 0 595.28 841.89"
	 xml:space="preserve">
<path fill="#E5C952" stroke="#000000" stroke-width="4" stroke-miterlimit="10" d="M427.023,296.063L236,249.933l-54.167,101.733
	l-20-9.833c0,0-24.833,79.111,12.667,84.167c-11,56.5,26.426,61.331,26.426,61.331l24.665,25.889
	c4.909,14.03,25.159,11.209,25.159,11.209L387.1,507.5c0,0,9.318,9.129,19.093,1.129L447,498.5c40-16,11-66,11-66
	c26-45.5,15.5-58,15.5-58l-24,15L427.023,296.063z"/>
<path fill="#FFFFFF" stroke="#000000" stroke-width="4" stroke-miterlimit="10" d="M183.197,365.272"/>
<ellipse fill="#FCF1E7" cx="317.702" cy="453.678" rx="23.66" ry="24.322"/>
<path fill="#FCF1E7" stroke="#000000" stroke-width="4" stroke-miterlimit="10" d="M338.265,232.602l56.808,61.121
	c0,0,52.928,114.777-72.072,147.277c-118,10.5-123.483-85.25-123.483-85.25l14.983-53.417L339.333,232"/>
<path fill="#E5C952" stroke="#000000" stroke-width="4" stroke-miterlimit="10" d="M431.781,295
	c-81.5,7.833-93.448-50.667-93.448-50.667S333,294,246.333,313c-21.833,0.5-31.833-9.25-31.833-9.25l0,0c0,0,5.5,31.75-31.5,69.75
	c0,0-12.665-124.004-1.999-130.833s217.742-41.927,222.577-47.424c2.508-2.852,28.615,45.757,28.615,101.625"/>
<path fill="#268557" stroke="#000000" stroke-width="4" stroke-miterlimit="10" d="M447,498.5L381,436l-48.5,4
	c0,0,16.5,32.25-13.75,34.907c-28.403,2.495-22.398-32.249-22.398-32.249L258.25,453.75c0,0-98.069,54.566-103.41,56.908
	c9.41,8.092,6.459,21.842,6.459,21.842l96.701-29l2.247,31L390.5,521.763L381,477l30,16.055c0,0-10.666,35.612-14,41.445
	c8.726,0.58,22,3.5,22,3.5L447,498.5"/>
<path fill="#FFFFFF" stroke="#000000" stroke-width="4" stroke-miterlimit="10" d="M266.5,452.5"/>
<ellipse fill="#FCF1E7" stroke="#000000" stroke-width="4" stroke-miterlimit="10" cx="404.726" cy="559.373" rx="24.274" ry="23.294"/>
<path fill="#FFFFFF" stroke="#000000" stroke-width="4" stroke-miterlimit="10" d="M260.247,534.5"/>
<polygon fill="#9F4449" stroke="#000000" stroke-width="4" stroke-miterlimit="10" points="391.084,523.363 426,608.5 239,629.5 
	260.361,536.08 "/>
<path fill="#FFFFFF" d="M399.333,302.333"/>
<polygon fill="#FCF1E7" stroke="#000000" stroke-width="4" stroke-miterlimit="10" points="387.592,612.813 397,665.187 
	363,676.441 338.592,618.444 "/>
<path fill="#594918" stroke="#000000" stroke-width="4" stroke-miterlimit="10" d="M163.5,743h17.501L149.5,546
	c0,0-8.003,5.493-18,2.043C128,536.5,163.5,743,163.5,743z"/>
<polygon fill="#FCF1E7" stroke="#000000" stroke-width="4" stroke-miterlimit="10" points="314.447,621.218 297.64,679 
	259.27,676.441 264.954,626.905 "/>
<circle fill="#5FC3DE" stroke="#000000" stroke-width="4" stroke-miterlimit="10" cx="239" cy="345.75" r="8.75"/>
<circle fill="#5FC3DE" stroke="#000000" stroke-width="4" stroke-miterlimit="10" cx="377.657" cy="331.25" r="8.75"/>
<path fill="#C65859" stroke="#000000" stroke-width="4" stroke-miterlimit="10" d="M118.667,260.669
	c0.667,2.333,13.032-1.672,13.032-1.672l-1.65-9.063C130.049,249.933,118.001,258.336,118.667,260.669z"/>
<polyline fill="#9F4449" stroke="#000000" stroke-width="4" stroke-miterlimit="10" points="208,190.5 208,160.5 341,129 
	359.334,153 "/>
<path fill="#BABABA" stroke="#000000" stroke-width="4" stroke-miterlimit="10" d="M89.875,357.852c0,0-40.208,1.149-35.542-3.352
	C48.667,346.333,35,241,35,241s33.667,99.333,32.667,101s29.833-4.418,27.5-5.751S76,225.333,76,225.333
	s36.143,108.342,35.333,105.917c12.667-4.25,27.334-17.5,27.334-17.5l-12.041-66.135l-5.877-32.282c0,0,26.917,76,34.583,107.167
	C139.667,343.667,121,351.667,121,351.667"/>
<path fill="#FFFFFF" stroke="#000000" stroke-width="4" stroke-miterlimit="10" d="M357.527,524.429"/>
<path fill="#FFFFFF" stroke="#000000" stroke-width="4" stroke-miterlimit="10" d="M288.683,535.08"/>
<polyline fill="#3A311B" stroke="#000000" stroke-width="4" stroke-miterlimit="10" points="103,391.667 91.333,357.667 
	121,351.667 123,387.297 "/>
<path fill="#C65859" stroke="#000000" stroke-width="4" stroke-miterlimit="10" d="M138.217,257.378
	c0,0,347.782-80.047,345.783-82.878S359.334,153,359.334,153L208,190.5l-73.564,55.695L138.217,257.378z"/>
<path fill="#594918" stroke="#000000" stroke-width="4" stroke-miterlimit="10" d="M103,391.125l20-5.625c0,0,19.5,105,21.5,118.5
	c-12-2-20.75,3.5-20.75,3.5L103,391.125z"/>
<path fill="#FFFFFF" stroke="#000000" stroke-width="4" stroke-miterlimit="10" d="M238.674,380.527l141.694-15.643
	c0,0-0.072,44.893-66.094,57.126C248.251,434.243,238.674,380.527,238.674,380.527z"/>
<path fill="#C65859" stroke="#000000" stroke-width="4" stroke-miterlimit="10" d="M283.155,446.5c0,0,7.004,116.169,7.004,104.919
	c-9.774-8.5-18.409-0.962-18.409,1.581l-5.25-101.651L283.155,446.5z"/>
<path fill="#C65859" stroke="#000000" stroke-width="4" stroke-miterlimit="10" d="M366.654,438.067c0,0,6.872,102.058,6.372,99.058
	s-10.776-2.75-15.499-0.25c0-5.375,0.554-10.897-3.962-98.612L366.654,438.067z"/>
<path fill="#268557" stroke="#000000" stroke-width="4" stroke-miterlimit="10" d="M254.5,676.5l46.5,3c0,0-17.634,62.5-12.317,69
	s-67.683,0-67.683,0l33.5-22V676.5z"/>
<ellipse fill="#EAE23F" stroke="#000000" stroke-width="4" stroke-miterlimit="10" cx="365.524" cy="543.75" rx="9.774" ry="9.25"/>
<path fill="#268557" stroke="#000000" stroke-width="4" stroke-miterlimit="10" d="M355.5,680.213L406,663l-4,66.828l33.5,19.238
	c0,0-70.385,7.875-63.192,0.394S355.5,680.213,355.5,680.213z"/>
<ellipse fill="#EAE23F" stroke="#000000" stroke-width="4" stroke-miterlimit="10" cx="281.524" cy="555.75" rx="9.774" ry="9.25"/>
<ellipse fill="#FCF1E7" stroke="#000000" stroke-width="4" stroke-miterlimit="10" cx="138.525" cy="526" rx="22.775" ry="22"/>
<polygon fill="#C65859" stroke="#000000" stroke-width="4" stroke-miterlimit="10" points="199,115.5 330,86 341,129 208,160.5 "/>
<path fill="none" stroke="#000000" stroke-width="4" stroke-miterlimit="10" d="M424.334,321.5
	c-20.045-2.393-26.667-26.5-26.667-26.5"/>
<g>
	<circle cx="377.657" cy="332.25" r="3.893"/>
	<circle fill="#FFFFFF" cx="376.275" cy="330.975" r="1.241"/>
</g>
<g>
	<circle cx="239" cy="346.75" r="3.893"/>
	<circle fill="#FFFFFF" cx="237.619" cy="345.475" r="1.241"/>
</g>
</svg>
